<svg id="logo" xmlns="http://www.w3.org/2000/svg" xmlns:xlink="http://www.w3.org/1999/xlink" width="414.304" height="57.488" viewBox="0 0 414.304 57.488">
  <defs>
    <clipPath id="clip-path">
      <rect id="Rectangle_32447" data-name="Rectangle 32447" width="414.304" height="57.488" fill="none"/>
    </clipPath>
  </defs>
  <g id="Group_91087" data-name="Group 91087">
    <g id="Logo_FG">
      <g id="Group_89476" data-name="Group 89476">
        <g id="Group_88751" data-name="Group 88751" clip-path="url(#clip-path)">
          <path id="Path_224713" data-name="Path 224713" d="M123.683,9.32,158.875,5a5.922,5.922,0,0,1,6.6,5.156L169.8,45.348a5.922,5.922,0,0,1-5.156,6.6l-35.192,4.321a5.923,5.923,0,0,1-6.6-5.156L118.526,15.92a5.922,5.922,0,0,1,5.156-6.6" transform="translate(-77.207 -3.229)" fill="#dd3e37" fill-rule="evenodd"/>
          <path id="Path_224714" data-name="Path 224714" d="M369.356,3.739,404.619.032A5.922,5.922,0,0,1,411.127,5.3l3.706,35.262a5.922,5.922,0,0,1-5.271,6.509L374.3,50.781a5.922,5.922,0,0,1-6.509-5.271l-3.706-35.262a5.922,5.922,0,0,1,5.271-6.509" transform="translate(-237.23 0)" fill="#79a31e" fill-rule="evenodd"/>
          <path id="Path_224715" data-name="Path 224715" d="M496.922,5.317h35.533a5.922,5.922,0,0,1,5.922,5.922V46.772a5.922,5.922,0,0,1-5.922,5.922H496.922A5.922,5.922,0,0,1,491,46.772V11.239a5.922,5.922,0,0,1,5.922-5.922" transform="translate(-319.954 -3.465)" fill="#f08535" fill-rule="evenodd"/>
          <path id="Path_224716" data-name="Path 224716" d="M619.377,8.193l35.408,1.856a5.923,5.923,0,0,1,5.6,6.224L658.534,51.68a5.922,5.922,0,0,1-6.224,5.6L616.9,55.429a5.922,5.922,0,0,1-5.6-6.224L613.153,13.8a5.922,5.922,0,0,1,6.224-5.6" transform="translate(-398.339 -5.333)" fill="#cd587b" fill-rule="evenodd"/>
          <path id="Path_224717" data-name="Path 224717" d="M256.29,9.9l35.451.619a5.922,5.922,0,0,1,5.818,6.025l-.619,35.451a5.922,5.922,0,0,1-6.025,5.818l-35.451-.619a5.922,5.922,0,0,1-5.818-6.025l.619-35.451A5.922,5.922,0,0,1,256.29,9.9" transform="translate(-162.678 -6.45)" fill="#e9c501" fill-rule="evenodd"/>
          <path id="Path_224718" data-name="Path 224718" d="M5.922,15.317H41.455a5.922,5.922,0,0,1,5.922,5.922V56.772a5.922,5.922,0,0,1-5.922,5.922H5.922A5.922,5.922,0,0,1,0,56.772V21.239a5.922,5.922,0,0,1,5.922-5.922" transform="translate(0 -9.981)" fill="#009adb" fill-rule="evenodd"/>
          <path id="Path_224719" data-name="Path 224719" d="M56.093,65.673a13.416,13.416,0,0,1-4.614,3.433,14.958,14.958,0,0,1-6.325,1.265,16.363,16.363,0,0,1-6.026-1.084,13.976,13.976,0,0,1-7.975-7.831,16.808,16.808,0,0,1,.02-12.289,13.767,13.767,0,0,1,3.242-4.719,14.336,14.336,0,0,1,4.853-2.992,17.24,17.24,0,0,1,11.873.02,11.226,11.226,0,0,1,4.674,3.112L51.2,49.248a5.717,5.717,0,0,0-2.506-1.968,8.24,8.24,0,0,0-3.182-.643,7.992,7.992,0,0,0-3.282.663,7.7,7.7,0,0,0-2.566,1.828,8.34,8.34,0,0,0-1.671,2.751,9.793,9.793,0,0,0-.6,3.474,10.077,10.077,0,0,0,.6,3.534,8.25,8.25,0,0,0,1.651,2.751,7.437,7.437,0,0,0,2.526,1.787,7.964,7.964,0,0,0,3.222.642,7.437,7.437,0,0,0,3.54-.8,6.883,6.883,0,0,0,2.426-2.088Z" transform="translate(-19.549 -26.335)" fill="#fff"/>
          <path id="Path_224720" data-name="Path 224720" d="M165.2,39.965l-2.418,10.2,7.152-.878Zm10.194,19.906-2.9-5.311-11.01,1.352-1.4,5.839-7.474.918,8.443-29.9,6.67-.819,15.3,26.983Z" transform="translate(-99.446 -20.82)" fill="#fff"/>
          <path id="Path_224721" data-name="Path 224721" d="M303.5,43.533a6.267,6.267,0,0,0-2.206-1.952,6.637,6.637,0,0,0-2.73-.857,8.358,8.358,0,0,0-1.407.023,3.64,3.64,0,0,0-1.31.373,3.155,3.155,0,0,0-1.014.818,2.345,2.345,0,0,0-.482,1.36,2.226,2.226,0,0,0,.22,1.227,2.7,2.7,0,0,0,.833.907,7.986,7.986,0,0,0,1.352.761q.79.358,1.781.751,1.426.584,2.966,1.278a11.426,11.426,0,0,1,2.77,1.749,8.169,8.169,0,0,1,1.982,2.542,6.86,6.86,0,0,1,.6,3.617,9.248,9.248,0,0,1-1.208,4.177,8.5,8.5,0,0,1-2.659,2.783,10.567,10.567,0,0,1-3.648,1.482,14.986,14.986,0,0,1-4.134.276,17.07,17.07,0,0,1-5.885-1.482,12.664,12.664,0,0,1-4.572-3.369l4.861-4.265a8.4,8.4,0,0,0,2.627,2.345,7.605,7.605,0,0,0,3.365,1.1,6.97,6.97,0,0,0,1.511-.056,3.768,3.768,0,0,0,1.313-.433,2.633,2.633,0,0,0,.939-.9,3.025,3.025,0,0,0,.425-1.424,2.281,2.281,0,0,0-.31-1.395A3.96,3.96,0,0,0,298.4,53.86a9.366,9.366,0,0,0-1.806-.974q-1.088-.46-2.476-1a24.364,24.364,0,0,1-2.623-1.234,9.049,9.049,0,0,1-2.243-1.712,7.186,7.186,0,0,1-1.5-2.408,7.732,7.732,0,0,1-.4-3.32,8.019,8.019,0,0,1,1.257-3.992,8.43,8.43,0,0,1,2.748-2.595,11.047,11.047,0,0,1,3.678-1.338,16.344,16.344,0,0,1,4.048-.222,15.04,15.04,0,0,1,4.9,1.231,12.835,12.835,0,0,1,4.256,2.923Z" transform="translate(-185.554 -22.823)" fill="#fff"/>
          <rect id="Rectangle_32446" data-name="Rectangle 32446" width="6.662" height="28.647" transform="translate(147.755 11.835) rotate(-6)" fill="#fff"/>
          <path id="Path_224722" data-name="Path 224722" d="M542.042,60.893,530.589,42.085h-.121l.161,18.809h-6.671V32.132h7.836L543.207,50.9h.12l-.161-18.768h6.671V60.893Z" transform="translate(-341.431 -20.938)" fill="#fff"/>
          <path id="Path_224723" data-name="Path 224723" d="M661.08,49.272a9.648,9.648,0,0,0-.61-3.454,8.206,8.206,0,0,0-1.686-2.751,7.784,7.784,0,0,0-2.6-1.807,8.318,8.318,0,0,0-3.353-.663,8.176,8.176,0,0,0-3.332.663,8.067,8.067,0,0,0-2.6,1.807,7.8,7.8,0,0,0-1.686,2.751,9.946,9.946,0,0,0-.589,3.454,10.053,10.053,0,0,0,.609,3.554,8.4,8.4,0,0,0,1.687,2.791,7.7,7.7,0,0,0,2.58,1.827,8.707,8.707,0,0,0,6.665,0,7.92,7.92,0,0,0,2.6-1.827,8.219,8.219,0,0,0,1.707-2.791,10.045,10.045,0,0,0,.61-3.554m7.437,0a15.694,15.694,0,0,1-1.178,6.164,14.025,14.025,0,0,1-3.271,4.779,14.581,14.581,0,0,1-4.978,3.072,18.542,18.542,0,0,1-12.5,0,14.63,14.63,0,0,1-4.958-3.072,14.026,14.026,0,0,1-3.271-4.779,15.688,15.688,0,0,1-1.178-6.164,15.5,15.5,0,0,1,1.178-6.165,13.492,13.492,0,0,1,3.271-4.679,14.612,14.612,0,0,1,4.958-2.972,19.219,19.219,0,0,1,12.5,0,14.567,14.567,0,0,1,4.978,2.972,13.491,13.491,0,0,1,3.271,4.679,15.509,15.509,0,0,1,1.178,6.165" transform="translate(-415.214 -22.425)" fill="#fff"/>
          <g id="Group_91380" data-name="Group 91380" transform="translate(279.392 12.933)">
            <g id="Group_91381" data-name="Group 91381" transform="translate(0 0)">
              <path id="Path_224724" data-name="Path 224724" d="M154.2,184.223a24.471,24.471,0,0,0-7.487-.906q-3,0-5.093.022t-3.852.111l-.035,0a3.973,3.973,0,0,0-3.73,4V210.1a4.122,4.122,0,0,0,4.09,4.152h.918a4.473,4.473,0,0,0,4.439-4.506v-6.016l.218.026a39.153,39.153,0,0,0,4.353.243,19.365,19.365,0,0,0,6.573-.906,6.052,6.052,0,0,0,3.5-3.138,14.828,14.828,0,0,0,1.067-6.254,14.35,14.35,0,0,0-1.132-6.32,6.3,6.3,0,0,0-3.831-3.16m-4.745,11.668a1.654,1.654,0,0,1-.958,1.061,5.454,5.454,0,0,1-2,.287h-3.047v-7.153q1.439-.006,3.047-.006a5.451,5.451,0,0,1,2,.288,1.658,1.658,0,0,1,.958,1.082,7.565,7.565,0,0,1,.261,2.254,7.145,7.145,0,0,1-.261,2.188" transform="translate(-134 -183.317)" fill="#fff" fill-rule="evenodd"/>
              <path id="Path_224725" data-name="Path 224725" d="M290.137,207.44a1.934,1.934,0,0,1-1.312-.427,1.4,1.4,0,0,1-.494-1.11V188.907a3.6,3.6,0,0,0-3.615-3.59h-2.038A3.666,3.666,0,0,0,279,188.97v19.281a6.452,6.452,0,0,0,1.914,4.847,7.062,7.062,0,0,0,5.138,1.858q3.655,0,7.418-.085,1.844-.043,3.578-.166a3.521,3.521,0,0,0,3.287-3.716l-.016-.25a3.531,3.531,0,0,0-3.534-3.3Z" transform="translate(-245.695 -184.526)" fill="#fff" fill-rule="evenodd"/>
              <path id="Path_224726" data-name="Path 224726" d="M433.565,202.368a15.606,15.606,0,0,1-.315,3.579,2.682,2.682,0,0,1-1.114,1.748,4.406,4.406,0,0,1-2.27.484,4.526,4.526,0,0,1-2.291-.484,2.648,2.648,0,0,1-1.135-1.748,15.606,15.606,0,0,1-.315-3.579V189.031a3.712,3.712,0,0,0-3.709-3.714H420.44a3.442,3.442,0,0,0-3.44,3.445v13.607a17.74,17.74,0,0,0,1.282,7.389,7.745,7.745,0,0,0,4.2,3.979,20.736,20.736,0,0,0,7.841,1.221,17.924,17.924,0,0,0,7.253-1.221,7.482,7.482,0,0,0,3.91-3.979,18.853,18.853,0,0,0,1.2-7.389v-12.8a4.245,4.245,0,0,0-4.242-4.248H437.3a3.738,3.738,0,0,0-3.735,3.741Z" transform="translate(-352.833 -184.02)" fill="#fff" fill-rule="evenodd"/>
              <path id="Path_224727" data-name="Path 224727" d="M580.867,200.317a11.751,11.751,0,0,0-5.063-3.577l-5.251-2.175a9.484,9.484,0,0,1-2-.983,1.19,1.19,0,0,1-.525-.983,1.045,1.045,0,0,1,.126-.544.868.868,0,0,1,.42-.335,2.708,2.708,0,0,1,.819-.168q.525-.041,1.324-.041,2.73,0,5.524.021,1.376.011,2.534.026a2.328,2.328,0,0,0,2.352-2.106,4.323,4.323,0,0,0-3.612-4.675q-.734-.117-1.484-.19-2.836-.271-5.1-.271a31.619,31.619,0,0,0-5.567.418,9.374,9.374,0,0,0-3.676,1.381,5.608,5.608,0,0,0-2.038,2.593,11.139,11.139,0,0,0-.651,4.1,8.374,8.374,0,0,0,1.47,5.145,12.556,12.556,0,0,0,5,3.555l5.756,2.51a7.65,7.65,0,0,1,1.218.544,1.707,1.707,0,0,1,.588.523,1.3,1.3,0,0,1,.168.69.819.819,0,0,1-.231.607,1.483,1.483,0,0,1-.841.314,14.093,14.093,0,0,1-1.786.084q-.756,0-2.289-.021t-3.634-.083q-.677-.021-1.4-.039a3.417,3.417,0,0,0-3.5,3.115,3.654,3.654,0,0,0,2.99,3.9,33.8,33.8,0,0,0,3.5.47q2.982.229,4.453.23a27.981,27.981,0,0,0,5.671-.482,9.156,9.156,0,0,0,3.634-1.505,5.62,5.62,0,0,0,1.954-2.719,12.655,12.655,0,0,0,.588-4.12,8.752,8.752,0,0,0-1.449-5.208" transform="translate(-460.077 -183.415)" fill="#fff" fill-rule="evenodd"/>
            </g>
          </g>
        </g>
      </g>
    </g>
  </g>
</svg>
