<svg viewBox="0 0 1024 1024" version="1.1" xmlns="http://www.w3.org/2000/svg" p-id="53735" fill="currentColor">
    <path
        d="M342.4 643.2V320H300.8c-9.6 12.8-25.6 22.4-41.6 32-16 9.6-32 16-48 19.2v51.2c32-6.4 57.6-19.2 76.8-38.4v259.2h54.4zM544 499.2c-38.4 25.6-64 44.8-73.6 57.6-22.4 25.6-32 51.2-32 86.4H665.6v-48h-160c6.4-16 28.8-35.2 60.8-57.6 32-22.4 54.4-38.4 67.2-51.2 6.4-9.6 12.8-16 19.2-25.6 0 0 0-3.2 3.2-3.2 3.2-3.2 3.2-6.4 6.4-12.8 0-3.2 3.2-6.4 3.2-6.4 0-3.2 3.2-6.4 3.2-9.6 0-6.4 3.2-12.8 3.2-19.2 0-6.4 0-12.8-3.2-19.2 0-3.2 0-6.4-3.2-9.6 0-3.2 0-3.2-3.2-6.4 0-3.2-3.2-6.4-6.4-12.8v-3.2c-3.2-3.2-6.4-9.6-9.6-12.8l-9.6-9.6c-19.2-19.2-48-25.6-76.8-25.6-35.2 0-64 12.8-86.4 35.2-19.2 22.4-32 51.2-32 86.4h54.4c0-25.6 6.4-44.8 16-57.6 9.6-12.8 25.6-19.2 44.8-19.2 19.2 0 32 3.2 41.6 12.8 9.6 9.6 12.8 22.4 12.8 38.4 0 19.2-6.4 35.2-22.4 51.2-9.6 16-25.6 28.8-44.8 41.6zM934.4 499.2c-9.6-12.8-25.6-19.2-44.8-25.6 35.2-12.8 54.4-35.2 54.4-70.4 0-28.8-9.6-48-28.8-64-19.2-16-48-22.4-80-22.4s-57.6 9.6-80 25.6c-22.4 19.2-35.2 41.6-35.2 76.8h51.2c3.2-19.2 9.6-35.2 19.2-44.8 9.6-9.6 25.6-12.8 44.8-12.8 19.2 0 32 3.2 41.6 12.8 9.6 9.6 12.8 19.2 12.8 35.2 0 16-6.4 28.8-16 35.2-9.6 9.6-25.6 12.8-44.8 12.8h-22.4v38.4h25.6c22.4 0 38.4 3.2 48 12.8 12.8 9.6 16 22.4 16 41.6 0 16-6.4 28.8-16 38.4-12.8 12.8-28.8 16-48 16s-35.2-6.4-44.8-16c-12.8-9.6-19.2-28.8-19.2-48h-54.4c3.2 35.2 16 64 38.4 83.2 19.2 16 48 25.6 83.2 25.6s64-9.6 86.4-28.8c22.4-19.2 32-44.8 32-73.6-3.2-19.2-9.6-35.2-19.2-48z">
    </path>
    <path d="M646.4 547.2h16v-12.8c-6.4 0-9.6 6.4-16 12.8z"></path>
    <path
        d="M640 0H169.6c-28.8 0-54.4 25.6-54.4 57.6v912c0 32 22.4 54.4 54.4 54.4H640c28.8 0 54.4-25.6 54.4-54.4v-281.6c-6.4 6.4-16 9.6-25.6 9.6h-22.4v118.4c0 16-12.8 28.8-25.6 28.8H192c-16 0-25.6-12.8-25.6-28.8V438.4c0-3.2-3.2-9.6-3.2-12.8v-51.2c0-3.2 0-9.6 3.2-12.8V153.6c0-16 12.8-28.8 25.6-28.8h425.6c16 0 25.6 12.8 25.6 28.8v131.2c9.6 6.4 16 9.6 25.6 19.2 9.6 9.6 16 19.2 22.4 28.8V54.4C691.2 25.6 668.8 0 640 0z m-236.8 883.2c25.6 0 48 22.4 48 51.2s-22.4 51.2-48 51.2-48-22.4-48-51.2c0-28.8 22.4-51.2 48-51.2zM448 80h-89.6c-6.4 0-9.6-6.4-9.6-12.8s6.4-12.8 9.6-12.8H448c6.4 0 9.6 6.4 9.6 12.8 3.2 6.4-3.2 12.8-9.6 12.8z">
    </path>
</svg>