<?xml version="1.0" standalone="no"?><!DOCTYPE svg PUBLIC "-//W3C//DTD SVG 1.1//EN" "http://www.w3.org/Graphics/SVG/1.1/DTD/svg11.dtd"><svg t="1753059237786" class="icon" viewBox="0 0 1140 1140" version="1.1" xmlns="http://www.w3.org/2000/svg" p-id="4339" xmlns:xlink="http://www.w3.org/1999/xlink" width="200" height="200" fill="#fe8e02"><path d="M137.228116 0h20.535446l25.053243 4.158428c83.219894 13.861426 168.390655 20.843477 249.043618 43.68916 76.186504 21.562218 150.319463 37.169157 230.099669 34.807581 82.141783-2.464253 163.513486 12.423945 238.570541 49.798456 29.468365 14.682844 31.727264 29.571042 9.600321 53.289481s-45.537351 48.360975-69.563823 73.927605c59.244761 51.338614 120.02968 98.724155 159.149704 166.439787v35.93703c-5.493232 18.687256-10.267723 37.579866-16.531033 56.061767-108.17046 329.33721-415.278051 531.611351-762.019052 503.11842-35.93703-2.926301-57.80728-17.609145-72.798155-50.055149a1270.322671 1270.322671 0 0 1-112.174872-389.608744C30.649153 533.356864 28.184899 484.790534 24.283165 436.378221v-10.267723a167.055851 167.055851 0 0 0 3.337009-22.280958C29.930412 285.186002 51.595307 169.982152 85.2221 56.472476 94.052341 26.439386 109.197233 8.932919 137.228116 0z m48.771683 948.018851l-5.133861 6.67402c10.267723 6.468665 19.816705 16.120325 30.803169 18.584578 17.301113 3.799057 35.680337 3.182994 53.597513 3.542364 193.854607 3.850396 364.504161-52.98145 500.243457-195.95949C830.299408 712.990675 825.165547 731.31856 778.960794 655.696781c-59.963501-98.467462-135.893312-183.894916-222.090845-262.340319-58.936729 45.896721-120.851098 56.985862-181.738695 9.754337C317.632006 358.343528 311.420034 297.763963 337.910759 227.327384c-64.378622-30.803169-127.679134-62.325078-192.365788-90.818009-25.309937-11.140479-44.972626 2.515592-50.927905 29.365688a1206.970821 1206.970821 0 0 0-13.861426 456.297603c3.028978 18.89261 9.805675 25.104582 28.338915 21.562218 25.155921-4.82583 50.979244-6.468665 75.827134-12.475283 119.978342-29.057656 222.347538-90.561316 314.551689-171.214279 10.267723-8.984257 26.336709-11.345834 39.736088-16.787726 5.133861 12.731976 13.399378 25.104582 15.042214 38.298606a523.191818 523.191818 0 0 1-12.577961 196.113506c-33.575454 130.40008-106.424947 225.068485-244.115111 255.820315-36.450416 8.060162-74.338313 9.857014-111.558809 14.528828zM460.661386 195.497443A102.677229 102.677229 0 0 0 356.39266 296.73719a100.212975 100.212975 0 0 0 99.391557 102.677229A101.958488 101.958488 0 0 0 460.661386 195.497443zM230.664394 902.276146l6.211972 7.187406 113.406999-29.930413v-8.111501L257.10378 806.52963z m128.346536-287.49624l-110.840069 48.874361 90.509977 62.838463z m130.246064 106.476286H401.519302l19.560012 107.451719a257.514489 257.514489 0 0 0 68.023664-107.297703z m-102.061165-123.982754L482.428958 636.598817l-4.620475-102.677229z m-290.319864 97.08132L162.897423 767.871653l42.097664-93.025569c-34.80758 5.133861-65.713426 9.651659-96.567934 14.374812a72.541462 72.541462 0 0 0-11.551188 5.133862z" p-id="4340"></path><path d="M531.611351 302.230422a73.773589 73.773589 0 1 1-72.336108-74.338313 73.003509 73.003509 0 0 1 72.336108 74.338313z" p-id="4341"></path></svg>