<?xml version="1.0" standalone="no"?><!DOCTYPE svg PUBLIC "-//W3C//DTD SVG 1.1//EN" "http://www.w3.org/Graphics/SVG/1.1/DTD/svg11.dtd"><svg t="1753059408308" class="icon" viewBox="0 0 900 950" version="1.1" xmlns="http://www.w3.org/2000/svg" p-id="9428" xmlns:xlink="http://www.w3.org/1999/xlink" width="200" height="200" fill="#9300ff"><path d="M866.56 214.613333l57.6 23.466667c21.76 8.96 32.426667 33.706667 23.466667 55.466667l-81.066667 200.96V214.613333z m-207.36-88.746666h79.36c23.466667 0 42.666667 19.2 42.666667 42.666666v259.413334l-122.026667-302.08z m121.173333 641.28l-395.52 160c-21.76 8.96-46.506667-1.706667-55.466666-23.466667L89.6 310.186667c-8.96-21.76 1.706667-46.506667 23.466667-55.466667l395.52-160c21.76-8.96 46.506667 1.706667 55.466666 23.466667l239.786667 593.493333c8.96 21.76-1.706667 46.933333-23.466667 55.466667z m-259.413333-356.693334l-140.8-61.44-61.013333 140.8c-14.08 37.973333 3.84 80.64 41.386666 96.853334 32.853333 14.08 69.973333 3.84 90.88-23.04l-1.706666 78.506666 79.36-31.146666-54.613334-56.32c33.706667 5.12 67.84-12.373333 82.346667-45.226667 16.213333-37.12 0-80.64-35.84-98.986667z m-308.053333-110.933333l-48.213334-20.906667-20.906666 48.213334c-4.693333 12.8 1.28 27.733333 14.08 33.28 11.093333 4.693333 23.893333 1.28 31.146666-7.68l-0.426666 26.88 27.306666-10.666667-18.773333-19.2c11.52 1.706667 23.466667-4.266667 28.16-15.36 5.12-13.653333 0-28.586667-12.373333-34.56zM735.573333 669.866667l-48.213333-20.906667-20.906667 48.213333c-4.693333 12.8 1.28 27.733333 14.08 33.28 11.093333 4.693333 23.893333 1.28 31.146667-7.68l-0.426667 26.88 27.306667-10.666666-18.773333-19.2c11.52 1.706667 23.466667-4.266667 28.16-15.36 5.546667-13.226667 0-28.16-12.373334-34.56z" p-id="9429"></path></svg>