<svg width="200" height="200" viewBox="0 0 200 200" fill="none" xmlns="http://www.w3.org/2000/svg">
<path d="M40.07 99.8598C40.07 95.4732 40.546 91.0865 41.498 86.8026C41.7497 85.6945 41.5718 84.5321 41.0002 83.55C40.4286 82.5679 39.5058 81.8391 38.418 81.5106L23.9419 77.1707C23.3585 76.995 22.7453 76.9402 22.14 77.0095C21.5346 77.0789 20.9498 77.2711 20.4212 77.5742C19.8927 77.8774 19.4315 78.2851 19.066 78.7726C18.7004 79.2601 18.4382 79.817 18.2952 80.4093C15.2343 93.2871 15.2343 106.703 18.2952 119.581C18.4382 120.173 18.7004 120.73 19.066 121.218C19.4315 121.705 19.8927 122.113 20.4212 122.416C20.9498 122.719 21.5346 122.911 22.14 122.981C22.7453 123.05 23.3585 122.995 23.9419 122.82L38.4646 118.461C39.5552 118.13 40.4796 117.398 41.0513 116.413C41.623 115.427 41.7993 114.261 41.5446 113.15C40.5571 108.789 40.0593 104.331 40.0606 99.8598H40.07ZM43.486 130.426L30.0926 137.631C29.5551 137.92 29.0822 138.315 28.7029 138.793C28.3236 139.271 28.0459 139.822 27.8869 140.411C27.7278 141 27.6908 141.615 27.7779 142.219C27.8651 142.823 28.0747 143.402 28.3939 143.922C35.3243 155.194 44.8068 164.68 56.0767 171.614C56.5967 171.933 57.1763 172.143 57.7802 172.23C58.384 172.317 58.9993 172.28 59.5883 172.121C60.1773 171.962 60.7276 171.684 61.2055 171.305C61.6834 170.926 62.0788 170.453 62.3674 169.915L69.6101 156.475C70.1437 155.473 70.2786 154.306 69.9878 153.209C69.6969 152.111 69.0019 151.164 68.0421 150.558C60.5358 145.817 54.1709 139.474 49.4033 131.985C48.7954 131.027 47.8479 130.334 46.7505 130.045C45.6531 129.755 44.4871 129.892 43.486 130.426ZM100.009 159.798C95.5849 159.798 91.1795 159.313 86.8675 158.351C85.7582 158.099 84.5945 158.277 83.6109 158.848C82.6272 159.42 81.8966 160.343 81.5661 161.431L77.1795 176.057C77.0038 176.64 76.949 177.253 77.0184 177.858C77.0877 178.464 77.2799 179.049 77.583 179.577C77.8862 180.106 78.294 180.567 78.7814 180.932C79.2689 181.298 79.8258 181.56 80.4181 181.703C93.2962 184.764 106.712 184.764 119.59 181.703C120.181 181.558 120.737 181.294 121.223 180.928C121.709 180.562 122.115 180.101 122.418 179.573C122.721 179.045 122.913 178.461 122.984 177.857C123.055 177.252 123.002 176.64 122.829 176.057L118.442 161.431C118.112 160.343 117.381 159.42 116.398 158.848C115.414 158.277 114.25 158.099 113.141 158.351C108.83 159.315 104.426 159.8 100.009 159.798ZM69.4888 43.3096L62.3674 30.0844C62.0788 29.5469 61.6834 29.074 61.2055 28.6947C60.7276 28.3154 60.1773 28.0377 59.5883 27.8787C58.9993 27.7196 58.384 27.6826 57.7802 27.7698C57.1763 27.8569 56.5967 28.0665 56.0767 28.3857C44.8076 35.3168 35.3251 44.7992 28.3939 56.0682C28.0747 56.5881 27.8651 57.1678 27.7779 57.7716C27.6908 58.3754 27.7278 58.9907 27.8869 59.5797C28.0459 60.1687 28.3236 60.719 28.7029 61.1969C29.0822 61.6748 29.5551 62.0702 30.0926 62.3588L43.346 69.4987C44.3486 70.0373 45.5184 70.175 46.6186 69.8839C47.7189 69.5928 48.6676 68.8947 49.2727 67.9307C54.0276 60.3902 60.3968 53.9988 67.9208 49.2175C68.8816 48.6143 69.5778 47.6691 69.8688 46.5725C70.1599 45.476 70.024 44.3099 69.4888 43.3096ZM176.057 77.1707L161.59 81.5106C160.505 81.8429 159.585 82.5725 159.014 83.5535C158.443 84.5345 158.263 85.6947 158.51 86.8026C160.433 95.4825 160.414 104.48 158.454 113.15C158.197 114.262 158.372 115.431 158.944 116.418C159.516 117.406 160.442 118.14 161.534 118.47L176.057 122.82C176.641 122.995 177.254 123.05 177.859 122.981C178.464 122.911 179.049 122.719 179.578 122.416C180.106 122.113 180.568 121.705 180.933 121.218C181.299 120.73 181.561 120.173 181.704 119.581C184.765 106.703 184.765 93.2871 181.704 80.4093C181.561 79.817 181.299 79.2601 180.933 78.7726C180.568 78.2851 180.106 77.8774 179.578 77.5742C179.049 77.2711 178.464 77.0789 177.859 77.0095C177.254 76.9402 176.641 76.995 176.057 77.1707ZM130.417 156.475L137.641 169.915C137.932 170.451 138.328 170.922 138.806 171.299C139.284 171.677 139.834 171.954 140.422 172.113C141.011 172.272 141.625 172.309 142.228 172.224C142.832 172.138 143.411 171.93 143.932 171.614C155.205 164.68 164.69 155.195 171.624 143.922C171.94 143.401 172.148 142.822 172.234 142.219C172.319 141.615 172.282 141.001 172.123 140.413C171.964 139.825 171.687 139.275 171.309 138.797C170.932 138.318 170.461 137.922 169.925 137.631L156.532 130.426C155.532 129.887 154.364 129.749 153.266 130.038C152.167 130.327 151.219 131.023 150.614 131.985C145.845 139.471 139.481 145.81 131.976 150.549C131.013 151.155 130.317 152.104 130.026 153.204C129.735 154.303 129.871 155.472 130.408 156.475H130.417ZM156.662 69.4987L169.916 62.3588C170.454 62.071 170.928 61.6762 171.308 61.1987C171.688 60.7212 171.967 60.171 172.127 59.5819C172.287 58.9929 172.325 58.3773 172.238 57.7731C172.152 57.1689 171.943 56.5887 171.624 56.0682C164.69 44.7984 155.204 35.316 143.932 28.3857C143.411 28.0679 142.832 27.8594 142.228 27.7729C141.625 27.6865 141.01 27.7238 140.421 27.8828C139.833 28.0417 139.283 28.3189 138.805 28.6974C138.327 29.0759 137.931 29.5478 137.641 30.0844L130.529 43.3096C129.995 44.3093 129.859 45.4738 130.148 46.5696C130.437 47.6654 131.13 48.6114 132.088 49.2175C139.612 53.9986 145.981 60.39 150.736 67.9307C151.341 68.8923 152.288 69.5887 153.386 69.8797C154.484 70.1706 155.651 70.0345 156.653 69.4987H156.662ZM100.009 39.9216C104.452 39.9216 108.876 40.4163 113.216 41.3869C114.325 41.639 115.489 41.4614 116.472 40.8899C117.456 40.3184 118.186 39.3955 118.517 38.307L122.829 23.9431C123.005 23.3597 123.059 22.7465 122.99 22.1412C122.921 21.5358 122.729 20.951 122.425 20.4225C122.122 19.8939 121.714 19.4328 121.227 19.0672C120.74 18.7017 120.183 18.4394 119.59 18.2965C106.713 15.2329 93.2958 15.2329 80.4181 18.2965C79.8258 18.4394 79.2689 18.7017 78.7814 19.0672C78.294 19.4328 77.8862 19.8939 77.583 20.4225C77.2799 20.951 77.0877 21.5358 77.0184 22.1412C76.949 22.7465 77.0038 23.3597 77.1795 23.9431L81.4915 38.3163C81.8238 39.4031 82.5552 40.3238 83.5387 40.8935C84.5221 41.4631 85.6847 41.6394 86.7928 41.3869C91.1329 40.4163 95.5662 39.9216 100.009 39.9216Z" fill="#FB01FF"/>
<path d="M99.9996 46.9988C85.9431 46.9988 72.4623 52.5827 62.5229 62.5221C52.5835 72.4615 46.9996 85.9423 46.9996 99.9988C46.9996 114.055 52.5835 127.536 62.5229 137.475C72.4623 147.415 85.9431 152.999 99.9996 152.999C114.056 152.999 127.537 147.415 137.476 137.475C147.416 127.536 153 114.055 153 99.9988C153 85.9423 147.416 72.4615 137.476 62.5221C127.537 52.5827 114.056 46.9988 99.9996 46.9988ZM126.06 92.5186C126.06 94.3355 125.338 96.078 124.053 97.3627C122.769 98.6475 121.026 99.3692 119.209 99.3692H105.878V103.841H119.644C121.346 103.841 122.978 104.517 124.181 105.72C125.384 106.923 126.06 108.555 126.06 110.256V110.904C126.06 112.593 125.389 114.214 124.194 115.408C123 116.602 121.38 117.274 119.691 117.274H105.878V124.245C105.878 125.963 105.195 127.612 103.98 128.827C102.765 130.042 101.116 130.725 99.3978 130.725H98.8979C97.1873 130.722 95.5475 130.042 94.3379 128.832C93.1284 127.623 92.4478 125.983 92.4453 124.272V117.274H78.2348C77.4491 117.275 76.6709 117.121 75.9448 116.821C75.2187 116.521 74.5589 116.08 74.0033 115.525C73.4477 114.969 73.0073 114.309 72.7072 113.583C72.407 112.857 72.2532 112.079 72.2544 111.293V110.738C72.2532 109.834 72.4302 108.938 72.7753 108.103C73.1205 107.267 73.6269 106.508 74.2658 105.868C74.9046 105.228 75.6633 104.721 76.4984 104.374C77.3336 104.028 78.2288 103.85 79.1328 103.85H92.4361V99.36H79.0217C77.2301 99.3575 75.5126 98.6447 74.2458 97.3779C72.9789 96.111 72.2661 94.3935 72.2637 92.6019C72.2637 90.8357 72.9646 89.1417 74.2127 87.892C75.4607 86.6422 77.1537 85.9389 78.9199 85.9364H83.919L77.4202 79.4375C72.3933 74.4106 77.1887 70.1614 77.4202 69.9392C78.6803 68.6808 80.3884 67.974 82.1693 67.974C83.9502 67.974 85.6583 68.6808 86.9185 69.9392L99.1571 82.1778L111.405 69.9392C115.312 66.0325 122.792 67.9303 123.199 75.6141C123.222 76.0743 123.147 76.534 122.979 76.9632C122.812 77.3924 122.556 77.7813 122.227 78.1044L114.404 85.9271H119.478C120.343 85.9271 121.199 86.0977 121.999 86.4291C122.798 86.7604 123.524 87.2461 124.135 87.8583C124.747 88.4705 125.231 89.1972 125.561 89.9969C125.892 90.7965 126.061 91.6534 126.06 92.5186Z" fill="#FB01FF"/>
</svg>
