<svg width="200" height="200" viewBox="0 0 200 200" fill="none" xmlns="http://www.w3.org/2000/svg">
<path d="M8 160.006C8.8325 160.061 9.665 160.163 10.4975 160.163H171.29V182H8V160.006ZM192.991 62.1581V133.131H171.42V149.489H10.1645C9.443 149.489 8.7215 149.535 8 149.553V73.0998C8.8325 73.1459 9.665 73.229 10.4975 73.229H171.327V89.5216H182.242V62.1581H193H192.991ZM62.3807 84.3644H29.9132V100.389H40.6247V95.1492H50.55L32.2812 135.853L42.0585 140.226C42.447 139.423 42.743 138.842 43.0113 138.233C49.0238 124.838 54.9622 111.414 61.1135 98.083C63.2132 93.5163 61.835 88.9311 62.3807 84.3644ZM106.013 84.3921H73.4992V100.408H84.183V95.1308H94.136L75.8395 135.853L85.6445 140.217C85.9775 139.497 86.2365 138.962 86.477 138.409C92.4617 125.124 98.28 111.774 104.496 98.5997C106.725 93.8484 105.569 89.1249 106.013 84.3921ZM149.442 84.3828H117.002V100.38H127.787V95.1585H137.685L119.416 135.844L129.147 140.198C129.323 139.903 129.462 139.709 129.554 139.506L149.081 96.0534C149.22 95.7212 149.423 95.3799 149.423 95.0385C149.451 91.5143 149.442 87.9809 149.442 84.3828ZM89.548 19.0003C95.5545 18.9723 101.401 20.9298 106.174 24.5669C110.947 28.204 114.377 33.3156 115.929 39.1031C116.299 40.487 116.909 40.7084 118.149 40.6991L143.54 40.6807H171.235V62.5733H10.1645C9.443 62.5733 8.7215 62.6194 8 62.6379V40.6346C12.7545 40.653 17.5183 40.6899 22.2727 40.6899C35.2875 40.6899 48.3022 40.6899 61.3077 40.7084C62.3715 40.7084 63.0282 40.6161 63.3705 39.3522C64.8654 33.5522 68.2452 28.4099 72.9816 24.7292C77.718 21.0486 83.5437 19.0372 89.548 19.0095V19.0003Z" fill="#00cfa7"/>
</svg>
