<svg width="100%" height="100%" viewBox="0 0 421 243" fill="none" xmlns="http://www.w3.org/2000/svg" preserveAspectRatio="none">
<rect width="421" height="243" fill="url(#paint0_linear_87_113)"/>
<path d="M421 243H29V158.678H29.5312C28.1776 149.835 30.5435 140.925 38.1279 132.805C50.8654 119.169 74.2063 135.914 90.0977 150.599C100.988 160.662 114.635 165.667 127.823 162.077C139.32 158.947 149.207 149.745 154.981 136.796L160.825 123.691C163.311 118.117 166.286 112.912 169.691 108.177L184.139 88.0898C191.113 78.3932 199.285 70.1862 208.334 63.7891L214.477 59.4482C224.783 52.1627 236.394 48.337 248.202 48.3369C258.928 48.3369 269.507 51.4931 279.101 57.5557L283.13 60.1006C296.862 68.7785 312.405 71.7813 327.562 68.6826C339.145 66.3143 350.109 60.4611 359.528 51.6172L387.339 25.5068L408.827 1.36523C409.237 0.904814 409.651 0.45043 410.067 0H421V243Z" fill="url(#paint1_linear_87_113)" fill-opacity="0.52"/>
<path d="M361.806 48C366.145 48 370.474 48.4373 374.726 49.3066L389.968 52.4248C393.051 53.0551 396.253 52.7181 399.139 51.4609C409.271 47.0477 420.59 54.5032 420.59 65.5898V131.342H421V243H0V167.619H0.431641C-0.666374 161.922 1.25204 156.182 7.4043 150.951C17.7366 142.166 36.6708 152.953 49.5615 162.414C58.3953 168.897 69.4654 172.122 80.1631 169.81C89.4889 167.793 97.5081 161.864 102.192 153.522L106.934 145.08C108.95 141.489 111.362 138.135 114.125 135.085L125.845 122.145C131.502 115.898 138.131 110.61 145.472 106.489L150.454 103.692C158.814 98.9989 168.233 96.5342 177.812 96.5342C186.512 96.5342 195.093 98.568 202.875 102.474L206.144 104.113C217.283 109.704 229.891 111.638 242.186 109.642C251.582 108.116 260.476 104.345 268.117 98.6475L290.676 81.8271L308.106 66.2744C314.028 60.9913 320.776 56.7239 328.08 53.6445C336.917 49.9191 346.406 48 355.99 48H361.806Z" fill="url(#paint2_linear_87_113)" fill-opacity="0.56"/>
<defs>
<linearGradient id="paint0_linear_87_113" x1="0" y1="121.5" x2="421" y2="121.5" gradientUnits="userSpaceOnUse">
<stop stop-color="#353E63"/>
<stop offset="1" stop-color="#5A6588"/>
</linearGradient>
<linearGradient id="paint1_linear_87_113" x1="288.5" y1="285" x2="288.5" y2="-27" gradientUnits="userSpaceOnUse">
<stop stop-color="#363F64"/>
<stop offset="1" stop-color="#5A6588"/>
</linearGradient>
<linearGradient id="paint2_linear_87_113" x1="421" y1="148.5" x2="0" y2="148.5" gradientUnits="userSpaceOnUse">
<stop stop-color="#363F64"/>
<stop offset="1" stop-color="#5A6588"/>
</linearGradient>
</defs>
</svg>
