<svg width="1em" height="1em" viewBox="0 0 210 200" fill="currentColor" xmlns="http://www.w3.org/2000/svg">
<path d="M102.477 80.9963C103.169 80.9963 103.846 80.791 104.421 80.4065C104.997 80.0219 105.446 79.4752 105.711 78.8357C105.975 78.1962 106.045 77.4924 105.91 76.8135C105.775 76.1346 105.441 75.5109 104.952 75.0214C104.462 74.532 103.839 74.1986 103.16 74.0636C102.481 73.9285 101.777 73.9978 101.138 74.2627C100.498 74.5276 99.9514 74.9762 99.5668 75.5518C99.1823 76.1274 98.977 76.8041 98.977 77.4963C98.977 78.4246 99.3457 79.3148 100.002 79.9712C100.658 80.6276 101.549 80.9963 102.477 80.9963Z" />
<path d="M30.8209 172.835H109.572C110.144 172.833 110.714 172.781 111.276 172.681L124.995 179.081C127.362 180.179 130.067 180.294 132.519 179.401C134.97 178.509 136.968 176.682 138.075 174.319L188.052 67.2605C189.155 64.8974 189.277 62.1934 188.389 59.741C187.502 57.2885 185.679 55.2877 183.319 54.1769L111.868 20.9117C109.501 19.8141 106.796 19.6989 104.344 20.5913C101.893 21.4837 99.8948 23.3111 98.7879 25.6732L94.422 35.0305H30.8209C28.2101 35.0336 25.7072 36.0724 23.8616 37.9188C22.016 39.7652 20.9786 42.2683 20.977 44.8787V162.987C20.9786 165.597 22.016 168.1 23.8616 169.946C25.7072 171.793 28.2101 172.832 30.8209 172.835ZM119.416 82.1837L128.237 78.972L139.477 109.8L119.416 117.093V82.1837ZM104.733 28.4532C105.102 27.6655 105.768 27.0558 106.585 26.7576C107.402 26.4594 108.304 26.497 109.093 26.8621L180.527 60.1391C181.315 60.5075 181.924 61.1735 182.222 61.9908C182.519 62.8081 182.48 63.7099 182.112 64.4983L132.135 171.557C131.767 172.345 131.101 172.955 130.284 173.253C129.467 173.551 128.565 173.513 127.776 173.148L117.76 168.476C118.844 166.857 119.423 164.952 119.422 163.004V124.079L144.795 114.846C145.613 114.548 146.28 113.938 146.648 113.149C147.016 112.361 147.057 111.458 146.759 110.64L133.283 73.6427C132.986 72.8247 132.375 72.1584 131.587 71.7901C130.798 71.4219 129.895 71.3819 129.077 71.6789L119.416 75.1924V44.8787C119.413 42.2693 118.375 39.7677 116.53 37.9226C114.684 36.0775 112.182 35.0395 109.572 35.0364H101.663L104.733 28.4532ZM27.5376 44.8787C27.5376 44.4476 27.6226 44.0208 27.7876 43.6225C27.9526 43.2242 28.1944 42.8623 28.4993 42.5575C28.8042 42.2526 29.1661 42.0108 29.5645 41.8459C29.9628 41.6809 30.3898 41.596 30.8209 41.596H109.572C110.443 41.596 111.278 41.9418 111.894 42.5575C112.51 43.1731 112.856 44.0081 112.856 44.8787V162.987C112.856 163.857 112.51 164.692 111.894 165.308C111.278 165.923 110.443 166.269 109.572 166.269H30.8209C30.3898 166.269 29.9628 166.184 29.5645 166.019C29.1661 165.854 28.8042 165.613 28.4993 165.308C28.1944 165.003 27.9526 164.641 27.7876 164.243C27.6226 163.845 27.5376 163.418 27.5376 162.987V44.8787Z" />
<path d="M51.2177 118.069C54.3648 120.094 58.1263 120.937 61.8347 120.448C60.9527 123.416 59.0944 125.997 56.5619 127.774C56.0444 128.209 55.6731 128.793 55.4981 129.446C55.3232 130.1 55.3531 130.792 55.5838 131.428C55.8145 132.064 56.2349 132.613 56.7879 133.002C57.341 133.391 58.0001 133.6 58.6758 133.601H81.7327C82.4951 133.6 83.2335 133.334 83.8222 132.849C84.4108 132.364 84.8133 131.689 84.9611 130.94C85.1088 130.191 84.9927 129.414 84.6325 128.742C84.2723 128.069 83.6903 127.542 82.9856 127.25C80.8845 125.464 79.3766 123.078 78.6628 120.412C82.3458 120.885 86.0785 120.065 89.2264 118.093C91.3412 116.742 93.0953 114.895 94.3369 112.712C95.5785 110.529 96.2701 108.075 96.3519 105.564C96.8269 95.771 89.8617 89.8664 78.3243 80.0789C76.4539 78.4913 74.5181 76.8501 72.4339 75.0365C71.8348 74.5164 71.0684 74.2302 70.2755 74.2302C69.4826 74.2302 68.7162 74.5164 68.1171 75.0365C66.0566 76.8204 64.1149 78.4615 62.2385 80.0492C51.0752 89.4799 43.7063 95.7116 44.1991 105.618C44.2815 108.106 44.9627 110.537 46.1847 112.705C47.4066 114.873 49.1332 116.713 51.2177 118.069ZM66.4723 85.0975C67.7014 84.0629 68.9543 82.9985 70.2547 81.8866L74.049 85.1154C85.1589 94.5401 90.0814 98.976 89.7548 105.249C89.7319 106.701 89.3507 108.125 88.6451 109.394C87.9396 110.663 86.9317 111.737 85.7111 112.522C84.4782 113.304 83.0777 113.782 81.6244 113.918C80.1711 114.053 78.7064 113.842 77.3505 113.301C76.5856 112.982 75.7288 112.963 74.9508 113.249C74.1728 113.534 73.5307 114.102 73.1524 114.841C72.2655 116.791 71.9029 118.94 72.1008 121.074C72.2987 123.208 73.0502 125.253 74.2806 127.007H66.1457C67.455 125.289 68.251 123.235 68.4413 121.082C68.6315 118.93 68.2082 116.768 67.2204 114.847C66.8378 114.124 66.2007 113.569 65.4327 113.29C64.6646 113.011 63.8204 113.027 63.0639 113.336C61.7105 113.861 60.253 114.059 58.809 113.915C57.3649 113.772 55.9748 113.29 54.7508 112.51C53.5424 111.723 52.5452 110.651 51.8465 109.388C51.1477 108.125 50.7687 106.71 50.7427 105.267C50.4458 98.9344 55.6415 94.2547 66.4723 85.0975ZM103.139 67.6453C103.572 67.6453 104 67.56 104.4 67.3941C104.8 67.2283 105.163 66.9852 105.469 66.6787C105.775 66.3723 106.018 66.0085 106.184 65.6081C106.349 65.2077 106.434 64.7785 106.434 64.3452V51.1564C106.398 50.3062 106.036 49.5027 105.422 48.9139C104.809 48.325 103.992 47.9963 103.142 47.9963C102.292 47.9963 101.475 48.325 100.862 48.9139C100.248 49.5027 99.8854 50.3062 99.8493 51.1564V64.3511C99.8509 65.2243 100.198 66.0613 100.815 66.6787C101.431 67.2962 102.267 67.6437 103.139 67.6453ZM37.2696 159.996C38.1436 159.996 38.9818 159.649 39.5999 159.03C40.2179 158.411 40.5651 157.571 40.5651 156.696V143.501C40.584 143.057 40.5128 142.613 40.3558 142.196C40.1989 141.78 39.9594 141.399 39.6518 141.078C39.3442 140.756 38.9748 140.501 38.5659 140.326C38.157 140.151 37.7171 140.061 37.2725 140.061C36.828 140.061 36.388 140.151 35.9791 140.326C35.5703 140.501 35.2009 140.756 34.8933 141.078C34.5857 141.399 34.3462 141.78 34.1892 142.196C34.0323 142.613 33.9611 143.057 33.98 143.501V156.696C33.98 157.57 34.3264 158.409 34.9431 159.028C35.5599 159.646 36.3966 159.995 37.2696 159.996ZM163.777 81.0244C164.568 81.3934 165.474 81.4329 166.294 81.1341C167.115 80.8353 167.783 80.2227 168.153 79.4308L173.723 67.4729C174.05 66.6869 174.062 65.8047 173.755 65.0105C173.447 64.2164 172.846 63.5719 172.075 63.2118C171.304 62.8517 170.425 62.8038 169.62 63.0782C168.815 63.3526 168.147 63.928 167.755 64.6841L162.186 76.642C161.817 77.4345 161.778 78.3412 162.076 79.1628C162.374 79.9844 162.986 80.654 163.777 81.0244Z" />
</svg>
